<svg width="16" height="14" viewBox="0 0 16 14" fill="none" xmlns="http://www.w3.org/2000/svg">
<path d="M11.7457 0C10.8671 0 10.0809 0.28 9.38728 0.793333C8.69364 1.30667 8.27746 1.96 8 2.42667C7.72254 1.96 7.30636 1.30667 6.61272 0.793333C5.91908 0.28 5.13295 0 4.25434 0C1.84971 0 0 1.96 0 4.57333C0 7.37333 2.2659 9.33333 5.7341 12.2267C6.33526 12.74 6.98266 13.3 7.6763 13.86C7.76879 13.9533 7.86127 14 8 14C8.13873 14 8.23121 13.9533 8.3237 13.86C9.01734 13.2533 9.66474 12.6933 10.2659 12.2267C13.7341 9.33333 16 7.37333 16 4.57333C16 1.96 14.1965 0 11.7457 0Z" fill="#FF4757"/>
</svg>
