<svg width="14" height="13" viewBox="0 0 14 13" fill="none" xmlns="http://www.w3.org/2000/svg">
<path d="M7 12.5C6.79412 12.5 6.58824 12.42 6.46471 12.3C5.88824 11.82 5.35294 11.38 4.85882 10.98C3.45882 9.82 2.22353 8.82 1.4 7.82C0.452941 6.74 0 5.7 0 4.54C0 3.42 0.411765 2.42 1.11176 1.66C1.85294 0.9 2.84118 0.5 3.91176 0.5C4.73529 0.5 5.47647 0.74 6.09412 1.22C6.42353 1.46 6.71176 1.78 7 2.1C7.24706 1.74 7.57647 1.46 7.90588 1.22C8.52353 0.74 9.26471 0.5 10.0882 0.5C11.1588 0.5 12.1471 0.9 12.8882 1.66C13.5882 2.42 14 3.46 14 4.54C14 5.7 13.5471 6.74 12.6 7.82C11.7353 8.82 10.5412 9.82 9.14118 10.98C8.64706 11.38 8.11176 11.82 7.53529 12.3C7.41176 12.42 7.20588 12.5 7 12.5ZM3.91176 1.3C3.04706 1.3 2.26471 1.62 1.72941 2.22C1.15294 2.82 0.823529 3.66 0.823529 4.54C0.823529 5.5 1.19412 6.34 2.01765 7.34C2.8 8.26 3.99412 9.26 5.39412 10.38C5.88824 10.78 6.42353 11.22 7 11.7C7.57647 11.22 8.11176 10.78 8.60588 10.38C10.0059 9.26 11.2 8.26 11.9824 7.34C12.8059 6.38 13.1765 5.5 13.1765 4.54C13.1765 3.62 12.8471 2.78 12.2706 2.18C11.7353 1.62 10.9529 1.3 10.0882 1.3C9.47059 1.3 8.89412 1.5 8.4 1.86C7.94706 2.18 7.61765 2.62 7.45294 2.9C7.37059 3.06 7.20588 3.14 7 3.14C6.79412 3.14 6.62941 3.06 6.54706 2.9C6.38235 2.62 6.05294 2.18 5.6 1.86C5.10588 1.5 4.52941 1.3 3.91176 1.3Z" fill="#8D8F92"/>
</svg>
